<svg width="28" height="28" viewBox="0 0 28 28" fill="none" xmlns="http://www.w3.org/2000/svg">
<g clip-path="url(#clip0_1639_1790)">
<path fill-rule="evenodd" clip-rule="evenodd" d="M14.0088 22.1667C16.4039 22.1667 18.5427 21.1591 20.0289 19.5404C19.4247 19.059 18.0877 17.9863 16.0178 16.3223C16.3316 15.8959 16.5548 15.5104 16.6874 15.1656C16.82 14.8208 16.9012 14.4149 16.931 13.948C20.2184 13.948 21.9637 13.948 22.1666 13.948C22.1666 9.40892 18.5478 5.79016 14.0088 5.79016C9.46968 5.79016 5.79004 9.4698 5.79004 14.0089C5.79004 18.5479 9.46968 22.1667 14.0088 22.1667Z" fill="white" fill-opacity="0.8"/>
<path fill-rule="evenodd" clip-rule="evenodd" d="M12.5426 7.07475C12.4411 7.00682 12.3226 6.84297 12.3395 6.73555C12.3565 6.62828 12.3508 6.64515 12.4072 6.59999C12.4636 6.55476 12.6159 6.67906 12.6779 6.59999C12.74 6.5208 12.7625 6.44172 12.881 6.46431C12.9994 6.48689 12.9994 6.61696 13.084 6.59999C13.1686 6.58308 13.2476 6.4474 13.4901 6.46431C13.7326 6.48131 14.1162 6.65642 14.0992 6.93901C14.0823 7.22163 13.93 7.35725 13.8962 7.4138C13.8623 7.47031 13.9639 7.54945 13.9639 7.68501C13.9639 7.82069 13.6029 7.89982 13.5578 7.95631C13.5127 8.01276 13.2307 7.99021 13.084 8.02408C12.9374 8.05805 12.7851 8.38016 12.6103 8.431C12.4354 8.48182 12.3452 8.33494 12.3395 8.22757C12.3339 8.12021 12.4241 7.94498 12.5426 7.75288C12.661 7.56077 12.5257 7.56077 12.5426 7.4138C12.5595 7.26685 12.6441 7.14256 12.5426 7.07475ZM15.5205 9.65164C15.4021 9.728 15.3514 9.5415 15.4529 9.44821C15.5544 9.35498 15.4021 9.26172 15.3852 9.17691C15.3683 9.0922 15.3937 8.96509 15.5205 8.97351C15.6474 8.98206 15.6559 8.96509 15.5882 8.83783C15.5205 8.71073 15.6559 8.63446 15.6559 8.63446C15.6559 8.63446 15.6813 8.58359 15.7236 8.56668C15.7659 8.54969 15.9266 8.47345 15.9943 8.56668C16.062 8.65988 15.9689 8.72769 16.1297 8.83783C16.2904 8.94809 16.3073 8.95652 16.4004 9.10919C16.4935 9.26172 16.3919 9.2702 16.265 9.44821C16.1381 9.62628 15.9266 9.56695 15.859 9.51602C15.7913 9.46527 15.8759 9.36349 15.9266 9.24478C15.9774 9.1261 15.9097 9.08371 15.7913 9.04132C15.6728 8.99905 15.7574 9.32108 15.7913 9.3804C15.8251 9.43979 15.639 9.57541 15.5205 9.65164ZM18.9723 20.0953C18.9836 19.954 19.1753 19.7789 19.243 19.5528C19.3107 19.3268 19.2148 19.1968 19.1753 19.0103C19.163 18.9519 19.1578 18.8811 19.1523 18.8374L20.0913 19.5862C20.0557 19.6256 19.1174 20.3958 19.1174 20.3958C19.1174 20.3958 18.961 20.2366 18.9723 20.0953ZM10.5121 6.8712C10.6137 6.92775 10.7152 6.90516 10.8505 6.93901C10.9859 6.97291 10.8618 7.15376 10.9859 7.14256C11.11 7.13111 11.3356 6.74693 11.595 6.8712C11.8545 6.99556 11.7868 7.30076 11.8658 7.27818C11.9447 7.25559 12.4072 7.33466 12.0011 7.75288C11.595 8.17103 11.1777 8.14844 11.1213 7.95631C11.0649 7.76414 11.2228 7.68501 11.2566 7.54945C11.2905 7.4138 11.2115 7.42512 10.9859 7.54945C10.7603 7.67374 10.0045 7.4929 9.76764 7.82069C9.53076 8.14844 9.49692 8.51008 9.90299 8.49881C10.3091 8.48749 10.5573 8.21631 10.5798 8.09189C10.6024 7.96763 10.952 7.70765 10.9182 8.02408C10.8844 8.34055 11.0197 8.21631 11.1213 8.22757C11.2228 8.2389 11.2792 8.37452 11.189 8.56668C11.0987 8.75876 11.0536 8.84915 11.189 8.97351C11.3243 9.09781 11.4371 9.39172 11.3243 9.44821C11.2115 9.5047 11.0874 9.39172 10.9859 9.51602C10.8844 9.64038 10.5573 9.53861 10.4444 9.44821C10.3316 9.35782 10.2076 9.36908 10.3091 9.58383C10.4106 9.79855 10.2189 9.97946 10.3768 9.99072C10.5347 10.0021 10.6814 10.1942 10.4444 10.2621C10.2724 10.3113 10.2433 10.3247 10.2402 10.3284C10.2276 10.3133 10.0296 10.0827 9.76764 10.1264C9.49692 10.1716 9.76764 10.4203 9.63229 10.5333C9.49692 10.6464 8.97802 10.3412 8.82012 10.5333C8.66219 10.7254 9.01189 11.0419 8.82012 11.1437C8.62834 11.2454 8.12073 11.3132 8.07563 11.4827C8.03049 11.6523 7.83871 11.7201 7.87256 11.8897C7.9064 12.0592 8.05307 12.4548 7.87256 12.5C7.69208 12.5452 7.57928 12.6582 7.53417 12.2287C7.48904 11.7993 7.52288 11.6636 7.26345 11.5505C7.00401 11.4375 6.71071 11.46 6.58662 11.6184C6.46256 11.7766 6.42872 12.1271 6.31589 12.2966C6.2031 12.4661 6.18054 12.6921 6.2482 12.7713C6.31589 12.8504 6.50767 12.8616 6.65431 12.6357C6.80095 12.4096 6.78966 12.4322 6.78966 12.4322C6.78966 12.4322 7.02657 12.5226 6.99272 12.7034C6.95888 12.8842 6.69941 13.0425 6.722 13.1782C6.74455 13.3138 6.8235 13.3928 6.92503 13.5172C7.02657 13.6416 7.08296 13.7885 6.99272 13.992C6.90245 14.1953 6.99272 14.4666 6.99272 14.4666C6.99272 14.4666 7.02657 14.5344 7.06041 14.5344H7.12807C7.12807 14.5344 7.21831 14.7492 7.33111 14.7379C7.44393 14.7266 7.47778 14.6813 7.66952 14.6023C7.8613 14.5231 8.06434 14.5796 8.21097 14.7379C8.35761 14.8961 8.5381 15.0882 8.75243 15.0091C8.96673 14.9301 9.20364 14.9753 9.15853 15.1448C9.1134 15.3143 9.26003 15.5742 9.36154 15.5516C9.46307 15.529 9.42923 15.789 9.5646 15.8229C9.69995 15.8568 10.3204 15.8116 10.3768 16.0265C10.4332 16.2411 10.4332 16.3994 10.5121 16.5011C10.5911 16.6028 10.6137 16.6706 10.6475 16.8402C10.6814 17.0098 10.9859 16.9532 11.1213 16.9758C11.2566 16.9984 11.3243 17.0888 11.392 17.1793C11.4597 17.2696 11.8771 17.2697 12.0688 17.3827C12.2606 17.4957 12.5426 17.6879 12.6779 17.7217C12.8133 17.7557 13.5465 17.8122 13.0163 18.4C12.4862 18.9877 12.5426 19.0329 12.4749 19.4172C12.4072 19.8015 12.3395 19.9936 12.0011 20.0276C11.6627 20.0614 11.4033 19.9484 11.3243 20.1631C11.2454 20.378 11.3018 20.4118 11.1213 20.5701C10.9408 20.7283 10.7603 20.8753 10.7152 20.977C10.6701 21.0787 10.388 21.0448 10.3768 21.1805C10.3724 21.2331 10.3758 21.2176 10.3559 21.3261C9.92209 21.1176 9.4668 20.84 9.07149 20.5421C8.93515 20.3365 8.93807 20.3503 8.88777 20.1631C8.80882 19.8693 8.57194 19.858 8.54939 19.485C8.52684 19.112 8.72987 18.8746 8.41401 18.6713C8.09818 18.4679 7.48904 17.9027 7.33111 17.5183C7.17321 17.1341 7.2296 17.0888 7.12807 16.9079C7.02657 16.7271 7.00401 16.5689 6.92503 16.4333C6.84605 16.2977 6.69941 16.1846 6.92503 16.0265C7.15065 15.8681 7.20705 15.755 7.26345 15.6872C7.31985 15.6195 7.38751 15.416 7.26345 15.2126C7.13936 15.0091 6.84605 14.8396 6.722 14.7379C6.59791 14.6361 6.56407 14.6475 6.58662 14.331C6.6092 14.0145 6.59791 13.8789 6.38358 13.7206C6.16925 13.5624 6.21439 13.5624 6.18054 13.3138C6.1467 13.0651 6.05646 12.9747 5.97751 12.839C5.959 12.8072 5.89201 12.818 5.87646 12.7902C6.30856 9.98151 8.0499 7.72707 10.4562 6.59429C10.3729 6.70102 10.4357 6.8286 10.5121 6.8712ZM16.2185 16.0374L16.2168 16.0402C16.1003 15.9248 15.9922 15.7134 15.9266 15.5516C15.8533 15.3708 15.4529 15.1618 15.4529 15.1448V15.0091C15.4529 14.8961 15.5882 14.8792 15.5882 14.7379C15.5882 14.5967 15.5487 14.4045 15.5205 14.1953C15.4923 13.9862 15.5205 13.9241 15.5205 13.9241C15.5205 13.9241 15.498 13.8959 15.5882 13.7885C15.6784 13.681 15.5882 13.4494 15.5882 13.4494C15.5882 13.4494 15.5939 13.455 15.6559 13.3138C15.7179 13.1724 15.6784 13.1329 15.7913 13.1104C15.9041 13.0878 15.9436 12.8221 16.062 12.7713C16.1804 12.7203 16.3666 12.6921 16.4004 12.3644C16.4342 12.0366 16.4286 12.0027 16.6035 11.754C16.7783 11.5053 17.0095 11.624 17.1449 11.5505C17.2803 11.477 17.1787 11.4206 17.2803 11.3471C17.3818 11.2736 17.5848 11.3188 17.754 11.2793C17.9232 11.2397 18.115 11.0532 18.2278 11.008C18.3406 10.9628 18.3801 11.1493 18.4308 11.2793C18.4816 11.4092 18.6057 11.4092 18.7692 11.4827C18.9328 11.5562 19.0907 11.7653 19.243 11.8219C19.3953 11.8783 19.4404 11.7935 19.4461 11.6862C19.4517 11.5788 19.2656 11.5449 19.3107 11.4149C19.3558 11.2849 19.5363 11.2906 19.7168 11.2793C19.8972 11.268 20.2244 11.2793 20.3259 11.0759C20.4274 10.8723 20.2695 10.7989 20.1905 10.7368C20.1116 10.6746 20.2018 10.4767 20.0552 10.3977C19.9086 10.3186 19.8296 10.5051 19.6491 10.5333C19.4686 10.5616 19.322 10.4542 19.243 10.2621C19.164 10.0699 19.2825 9.91733 19.3784 9.8551C19.4743 9.79303 19.6773 9.68561 19.6491 9.51602C19.6209 9.34644 19.4686 9.39172 19.4461 9.44821C19.4235 9.5047 19.2712 9.49338 19.1753 9.44821C19.0794 9.40299 19.04 9.33518 18.9723 9.3804C18.9046 9.42557 18.8313 9.5047 18.8369 9.58383C18.8426 9.66296 18.9554 9.79303 19.1076 9.8551C19.2599 9.91733 19.1415 10.0021 19.1076 10.1264C19.0738 10.2508 19.0231 10.166 18.9723 10.2621C18.9215 10.3581 19.0118 10.3638 19.04 10.5333C19.0682 10.7028 18.9497 10.6012 18.9046 10.5333C18.8595 10.4655 18.7297 10.3807 18.6339 10.2621C18.538 10.1434 18.476 10.0925 18.3632 10.1264C18.2503 10.1604 18.0586 10.0359 17.9571 9.99072C17.8555 9.94555 18.0529 10.2112 18.0924 10.2621C18.1319 10.3129 18.3575 10.2847 18.4308 10.3299C18.5042 10.375 18.6733 10.4429 18.6339 10.4655C18.5944 10.4881 18.6395 10.635 18.6339 10.8045C18.6282 10.9741 18.5662 10.8215 18.4985 10.669C18.4308 10.5163 18.3575 10.5107 18.2278 10.5333C18.0981 10.5559 17.9289 10.4712 17.8217 10.3299C17.7145 10.1885 17.6469 10.2168 17.4833 10.3299C17.3197 10.4429 17.269 10.4259 17.2803 10.5333C17.2915 10.6407 17.1957 10.6802 17.1449 10.7368C17.0941 10.7933 17.0547 11.0362 17.0772 11.1437C17.0998 11.251 16.9362 11.46 16.8742 11.4827C16.8121 11.5053 16.5414 11.5901 16.5358 11.4827C16.5301 11.3753 16.3158 11.3584 16.1973 11.2793C16.0789 11.2001 16.0225 11.1323 15.9943 10.8045C15.9661 10.4767 16.2763 10.5333 16.4681 10.5333C16.6599 10.5333 16.767 10.3468 16.7388 10.1264C16.7106 9.90606 16.3496 10.0473 16.1973 9.99072C16.0451 9.93423 16.1071 9.83819 16.3327 9.71951C16.5583 9.60086 16.5301 9.59521 16.6711 9.51602C16.8121 9.43695 16.7896 9.25604 16.8065 9.10919C16.8234 8.96225 16.8234 8.88312 16.9419 8.83783C17.0603 8.79267 17.2069 8.83225 17.3479 8.77002C17.4889 8.70789 17.4382 8.51008 17.4156 8.431C17.3931 8.35187 17.2915 8.1767 17.2803 8.02408C17.269 7.87156 17.0772 7.93937 16.9419 7.82069C16.8065 7.702 16.7614 7.86585 16.8065 7.95631C16.8516 8.04673 16.9701 8.12021 17.0095 8.1597C17.049 8.19929 17.0998 8.46491 17.1449 8.56668C17.19 8.66831 17.0095 8.63446 16.9419 8.63446C16.8742 8.63446 16.7726 8.53836 16.6711 8.49881C16.5696 8.45923 16.3214 8.45923 16.1973 8.431C16.0733 8.40274 16.0338 8.2389 15.9943 8.09189C15.9548 7.94498 16.062 7.62287 15.9943 7.48158C15.9266 7.34025 15.8533 7.21037 15.9266 7.07475C16 6.93901 16.1973 7.02387 16.3327 7.07475C16.4681 7.12559 16.6429 7.00123 16.7388 6.93901C16.8347 6.87693 16.6147 6.75258 16.4681 6.59999C16.3214 6.4474 15.9436 6.26655 15.7913 6.1931C15.7445 6.17052 15.7444 6.03371 15.7506 5.9704C19.1753 6.59999 22.3247 9.99072 22.1725 13.9608H16.9514C16.9514 13.9608 16.9453 13.9723 16.9427 13.997C16.8426 14.9316 16.6449 15.3948 16.2185 16.0374Z" fill="url(#paint0_linear_1639_1790)"/>
<path d="M14.0103 5.08054C9.1166 5.08054 5.09087 9.10921 5.09087 14.0002C5.09087 18.8915 9.1166 22.92 14.0103 22.92C16.8785 22.92 19.4247 21.4938 21.0441 19.3815L16.8532 16.147L16.8747 16.0809C17.1975 15.6372 17.4186 15.1156 17.507 14.5499H27.7408C27.4516 21.8833 21.4151 27.7408 14.007 27.7408C6.41431 27.7408 0.259277 21.5888 0.259277 14C0.259277 6.41116 6.41431 0.259277 14.007 0.259277C18.3368 0.259277 22.1984 2.2606 24.7184 5.38747L21.2321 8.87186C19.6261 6.61558 16.9918 5.08054 14.0103 5.08054Z" fill="url(#paint1_linear_1639_1790)"/>
</g>
<defs>
<linearGradient id="paint0_linear_1639_1790" x1="22.1778" y1="6.83538" x2="6.73987" y2="21.3777" gradientUnits="userSpaceOnUse">
<stop stop-color="#71B531"/>
<stop offset="1" stop-color="#588D27"/>
</linearGradient>
<linearGradient id="paint1_linear_1639_1790" x1="27.7408" y1="0.259277" x2="0.259277" y2="27.7408" gradientUnits="userSpaceOnUse">
<stop stop-color="#7BA0D0"/>
<stop offset="1" stop-color="#325A8F"/>
</linearGradient>
<clipPath id="clip0_1639_1790">
<rect width="28" height="28" fill="white"/>
</clipPath>
</defs>
</svg>
